<svg xmlns="http://www.w3.org/2000/svg" xmlns:xlink="http://www.w3.org/1999/xlink" viewBox="0 0 647.92 117.36"><defs><style>.cls-1{font-size:31.62px;fill:#061644;font-family:MontaukBold, Montauk;}.cls-2{fill:#1838d0;}.cls-3{fill:url(#linear-gradient);}.cls-4{fill:url(#linear-gradient-2);}.cls-5{fill:url(#linear-gradient-3);}.cls-6{fill:url(#linear-gradient-4);}.cls-7{fill:url(#linear-gradient-5);}.cls-8{fill:url(#linear-gradient-6);}.cls-9{fill:url(#linear-gradient-7);}</style><linearGradient id="linear-gradient" x1="289.66" y1="46.3" x2="634.56" y2="-33.87" gradientUnits="userSpaceOnUse"><stop offset="0" stop-color="#ef65e2"/><stop offset="0.14" stop-color="#ef60d9"/><stop offset="0.37" stop-color="#ef52bf"/><stop offset="0.67" stop-color="#ef3d96"/><stop offset="0.99" stop-color="#ef2060"/></linearGradient><linearGradient id="linear-gradient-2" x1="292.43" y1="58.23" x2="637.33" y2="-21.94" xlink:href="#linear-gradient"/><linearGradient id="linear-gradient-3" x1="295.23" y1="70.29" x2="640.14" y2="-9.88" xlink:href="#linear-gradient"/><linearGradient id="linear-gradient-4" x1="298.07" y1="82.48" x2="642.97" y2="2.31" xlink:href="#linear-gradient"/><linearGradient id="linear-gradient-5" x1="301.84" y1="98.72" x2="646.74" y2="18.55" xlink:href="#linear-gradient"/><linearGradient id="linear-gradient-6" x1="303.91" y1="107.62" x2="648.81" y2="27.45" xlink:href="#linear-gradient"/><linearGradient id="linear-gradient-7" x1="549.63" y1="91.93" x2="659.97" y2="54.49" xlink:href="#linear-gradient"/></defs><g id="Layer_2" data-name="Layer 2"><g id="Layer_1-2" data-name="Layer 1"><text class="cls-1" transform="translate(392.96 92.31)">by Bythesea</text><path class="cls-2" d="M71.63,34.05c0-10.14-5.43-15.3-13.58-15.3-8.33,0-14,5.34-14,16V62.12H35.86V34.05c0-10.14-5.43-15.3-13.58-15.3-8.33,0-14,5.34-14,16V62.12H0V12.5H8.24v7.15c3.26-5.25,9.15-8.06,15.67-8.06,8.15,0,14.94,3.62,18.2,11.05,2.9-7.15,10-11,17.57-11,11.32,0,20.1,7.07,20.1,21.28V62.12H71.63Z"/><path class="cls-2" d="M114.74,62.94c-14.13,0-24.54-10-24.54-25.72s10-25.54,24.54-25.54,23.82,10.15,23.82,23.73a44.94,44.94,0,0,1-.27,5H98.62c.64,10,7.7,15.58,16.12,15.58,7.43,0,12.14-3.81,14-9.15h8.87C135,55.88,127.06,62.94,114.74,62.94Zm-16-29.25h31.34c.09-9.69-7.16-15-15.67-15C106.32,18.66,99.62,24,98.71,33.69Z"/><path class="cls-2" d="M170.89,62.94c-14.13,0-24.54-10-24.54-25.72s10.05-25.54,24.54-25.54,23.82,10.15,23.82,23.73a44.94,44.94,0,0,1-.27,5H154.77c.63,10,7.7,15.58,16.12,15.58,7.43,0,12.14-3.81,14-9.15h8.87C191.18,55.88,183.21,62.94,170.89,62.94Zm-16-29.25H186.2c.09-9.69-7.16-15-15.67-15C162.47,18.66,155.77,24,154.86,33.69Z"/><path class="cls-2" d="M207.39,19.29H201V12.5h6.43V0h8.24V12.5h13v6.79h-13V48.54c0,4.89,1.81,6.61,6.88,6.61h6.07v7h-7.43c-8.78,0-13.76-3.62-13.76-13.58Z"/><path class="cls-2" d="M274.86,34.05c0-10.14-5.53-15.3-13.86-15.3S246.78,24,246.78,34.68V62.12h-8.24V12.5h8.24v7.06c3.26-5.16,9.24-8,15.94-8,11.5,0,20.29,7.07,20.29,21.28V62.12h-8.15Z"/><path class="cls-3" d="M316.43,11.49c8.06,0,13.59,3.8,16.57,8V12.31h12.77V62.48H333V55.14c-3,4.35-8.69,8.15-16.66,8.15-12.68,0-22.82-10.41-22.82-26.08S303.66,11.49,316.43,11.49Zm3.26,11.14c-6.79,0-13.22,5.07-13.22,14.58s6.43,14.94,13.22,14.94c7,0,13.31-5.25,13.31-14.76S326.66,22.63,319.69,22.63Z"/><path class="cls-4" d="M393.32,34.77c0-8.06-4.44-12.41-11.14-12.41-6.88,0-11.32,4.35-11.32,12.41V62.48H358.18V12.31h12.68v6.24a18.75,18.75,0,0,1,15.12-7c11.69,0,20,7.61,20,21.46V62.48H393.32Z"/><path class="cls-5" d="M437.24,63.29c-12.59,0-21.37-7.33-21.92-16.66h12.77c.46,3.8,4,6.7,9.06,6.7s7.7-2.26,7.7-5.16c0-9-28.35-3.26-28.35-21.65,0-8.33,7.43-15,19.83-15,12.14,0,19.48,6.61,20.2,16.57H444.39C444,24.17,441,21.54,436,21.54c-4.71,0-7.15,1.91-7.15,4.8,0,9.15,27.8,3.44,28.16,21.83C457,56.77,449.47,63.29,437.24,63.29Z"/><path class="cls-6" d="M461.78,12.31h12.86l8.88,38.21,9.6-38.21h13.4l9.42,38.12,8.87-38.12H537L522.28,62.48H508.6l-9.14-35-9.15,35.05H476.54Z"/><path class="cls-7" d="M565.75,63.29c-14.58,0-25.18-10.14-25.18-25.9s10.33-25.9,25.18-25.9c14.49,0,24.72,9.87,24.72,24.81a29.81,29.81,0,0,1-.36,4.89H553.43c.64,7.43,5.71,11.6,12.05,11.6,5.43,0,8.42-2.72,10-6.07H589.2C586.49,56,578.15,63.29,565.75,63.29ZM553.52,32.68h23.82c-.18-6.61-5.43-10.77-12-10.77C559.32,21.91,554.52,25.8,553.52,32.68Z"/><path class="cls-8" d="M612.39,62.48H599.71V12.31h12.68v7.78a17.4,17.4,0,0,1,15.39-8.51V24.89h-3.35c-7.52,0-12,2.9-12,12.59Z"/><path class="cls-9" d="M625.81,80.55l1.58,14.22.67,7.12.34,3.56.07.89,0,.45V107l0,.46v.65a9.26,9.26,0,0,1-.12,1.35A9.4,9.4,0,0,1,616,116.8a9.28,9.28,0,0,1-2.45-1.34c-.2-.15-.39-.31-.58-.48l-.42-.39-.07-.09C606,107.43,599.85,100,593.58,92.74l-4.53-5.61-2.26-2.81-1.13-1.4-.28-.35c-.08-.09.11.09.16.1a2.12,2.12,0,0,0,.51.28,2.38,2.38,0,0,0,1.11.15l-1.64-.16-3.58-.38-7.15-.76c-9.54-1.14-19.08-2.38-28.62-4.43v-1l28.62-.25,7.15,0h5.39a4.63,4.63,0,0,1,2.06.53,5.59,5.59,0,0,1,1.57,1.3l1.23,1.3,2.46,2.59,4.91,5.2,19.65,20.77c.17.18,0,0,0,0h-.11a.17.17,0,0,0-.11.14l-.17-1.54-.37-3.56-.76-7.11L616.3,81.52v-.09a6.17,6.17,0,0,1,6.1-6.13h8.16a13,13,0,0,0,2.54-.14,8.89,8.89,0,0,0,2.3-.82,8.36,8.36,0,0,0,3.42-3.45,8.09,8.09,0,0,0,.8-2.32,13.16,13.16,0,0,0,.15-2.56l0-10.87c0-14.5.16-29,.31-43.48h1c1.54,7.24,2.64,14.49,3.59,21.74.54,3.62.89,7.24,1.28,10.87s.83,7.24,1.06,10.87L647.83,66l0,.67,0,.34v.56a15.63,15.63,0,0,1-.15,2.46,16.63,16.63,0,0,1-1.48,4.74A17,17,0,0,1,639.53,82a17.39,17.39,0,0,1-4.74,1.83,23.59,23.59,0,0,1-4.24.45l-5.44.26"/></g></g></svg>